<svg width="48" height="48" viewBox="0 0 48 48" fill="none" xmlns="http://www.w3.org/2000/svg">
<circle cx="24" cy="24" r="24" fill="#FF9900"/>
<rect x="34" y="22" width="8" height="2" rx="1" fill="white"/>
<path fill-rule="evenodd" clip-rule="evenodd" d="M29 14C29 13.4477 29.4477 13 30 13H33C33.5523 13 34 13.4477 34 14C34 14.5523 33.5523 15 33 15L31.4227 15L25.5692 25.1385L27 28.0001H29C31.2091 28.0001 33 29.7909 33 32.0001C33 34.2092 31.2091 36.0001 29 36.0001C26.7909 36.0001 25 34.2092 25 32.0001C25 31.2715 25.1948 30.5884 25.5351 30.0001H20.4649C20.8052 30.5884 21 31.2715 21 32.0001C21 34.2092 19.2091 36.0001 17 36.0001C14.7909 36.0001 13 34.2092 13 32.0001C13 29.7909 14.7909 28.0001 17 28.0001H24.7639L23.7639 26L13.0193 26C12.9795 26.0007 12.9398 25.9991 12.9004 25.9951C12.7604 25.9813 12.6289 25.9385 12.5119 25.873C12.3969 25.8088 12.2933 25.7212 12.209 25.6119C12.1839 25.5795 12.1608 25.5456 12.1398 25.5103L6.85728 16.9899C6.3726 16.9207 6 16.5039 6 16C6 15.4477 6.44772 15 7 15L29 15C29.0371 15 29.0737 15.0021 29.1098 15.006L29.2862 14.7004C29.1092 14.52 29 14.2727 29 14ZM23.9171 24L13.5567 24L9.21675 17L27.9585 17L23.9171 24ZM17 30.0001C15.8954 30.0001 15 30.8955 15 32.0001C15 33.1046 15.8954 34.0001 17 34.0001C18.1046 34.0001 19 33.1046 19 32.0001C19 30.8955 18.1046 30.0001 17 30.0001ZM29 30.0001C27.8954 30.0001 27 30.8955 27 32.0001C27 33.1046 27.8954 34.0001 29 34.0001C30.1046 34.0001 31 33.1046 31 32.0001C31 30.8955 30.1046 30.0001 29 30.0001Z" fill="white"/>
<rect x="39" y="19" width="8" height="2" rx="1" transform="rotate(90 39 19)" fill="white"/>
</svg>
