<svg width="100" height="100" viewBox="0 0 100 100" fill="none" xmlns="http://www.w3.org/2000/svg">
<g filter="url(#filter0_i_286_2593)">
<circle cx="50" cy="50" r="50" fill="url(#paint0_linear_286_2593)"/>
</g>
<path d="M37.5 48.7V53.7H49.3C47.9 59.8 43.6 63.6 37.8 63.6C30.2 63.6 24.1 57.4 24.1 49.9C24.1 42.4 30.2 36.1 37.8 36.1C41.4 36.1 44.7 37.5 47.1 39.8L51 36.5C47.6 33 42.9 31 37.8 31C27.4 31 19 39.4 19 49.8C19 60.2 27.4 68.6 37.8 68.6C47.8 68.6 55 61 55 50.6V48.7H37.5Z" stroke="#7D7D7D" stroke-width="3" stroke-miterlimit="10" stroke-linejoin="round"/>
<path d="M80.2 48.9016H72.9V41.6016H68.3V48.9016H61.1V53.5016H68.3V60.7016H72.9V53.5016H80.2V48.9016Z" stroke="#7D7D7D" stroke-width="3" stroke-miterlimit="10" stroke-linejoin="round"/>
<defs>
<filter id="filter0_i_286_2593" x="0" y="0" width="100" height="100" filterUnits="userSpaceOnUse" color-interpolation-filters="sRGB">
<feFlood flood-opacity="0" result="BackgroundImageFix"/>
<feBlend mode="normal" in="SourceGraphic" in2="BackgroundImageFix" result="shape"/>
<feColorMatrix in="SourceAlpha" type="matrix" values="0 0 0 0 0 0 0 0 0 0 0 0 0 0 0 0 0 0 127 0" result="hardAlpha"/>
<feOffset/>
<feGaussianBlur stdDeviation="5"/>
<feComposite in2="hardAlpha" operator="arithmetic" k2="-1" k3="1"/>
<feColorMatrix type="matrix" values="0 0 0 0 0 0 0 0 0 0 0 0 0 0 0 0 0 0 0.1 0"/>
<feBlend mode="normal" in2="shape" result="effect1_innerShadow_286_2593"/>
</filter>
<linearGradient id="paint0_linear_286_2593" x1="0" y1="0" x2="112.246" y2="16.453" gradientUnits="userSpaceOnUse">
<stop stop-color="white"/>
<stop offset="1" stop-color="white"/>
</linearGradient>
</defs>
</svg>
